<svg preserveAspectRatio="none" width="100%" height="100%" overflow="visible" style="display: block;" viewBox="0 0 64 64" fill="none" xmlns="http://www.w3.org/2000/svg">
<g id="quote-down">
<g id="Vector" opacity="0">
</g>
<path id="Vector_2" d="M42.4264 32.9858H54.933C54.7197 45.4392 52.2664 47.4925 44.613 52.0259C43.733 52.5592 43.4397 53.6791 43.973 54.5858C44.5064 55.4658 45.6264 55.7592 46.533 55.2259C55.5464 49.8926 58.693 46.6391 58.693 31.1191V16.7459C58.693 12.1859 54.9864 8.50586 50.453 8.50586H42.453C37.7597 8.50586 34.213 12.0526 34.213 16.7459V24.7459C34.1864 29.4393 37.733 32.9858 42.4264 32.9858Z" fill="var(--fill-0, #0F6CB6)"/>
<path id="Vector_3" d="M13.5729 32.9849H26.0795C25.8662 45.4382 23.4129 47.4916 15.7595 52.0249C14.8795 52.5582 14.5862 53.6781 15.1195 54.5848C15.6529 55.4648 16.7729 55.7583 17.6795 55.2249C26.6929 49.8916 29.8395 46.6382 29.8395 31.1182V16.745C29.8395 12.185 26.1329 8.50488 21.5995 8.50488H13.5995C8.90619 8.50488 5.35952 12.0516 5.35952 16.745V24.745C5.33286 29.4383 8.87952 32.9849 13.5729 32.9849Z" fill="var(--fill-0, #52D9E1)"/>
</g>
</svg>
